# File created by Blade
# Date/Time:  Fri Jan 16 17:25:32 2015
#---------------------------------------------------------
:version 1.10
:name HOM
:units
  mass 1.0
  length 1.000000
  angle deg
:documentation
     Acclaim Skeleton File
:root
   axis xyz
   order TX TY TZ RX RY RZ
   position 0.000000 0.000000 0.000000
   orientation 0 0 0
:bonedata
   begin
      id 1
      name Spine_dum
      direction 0.000000 1.000000 0.000000
      length 7.170412
      axis 0.0 0.0 0.0 xyz
   end
   begin
      id 2
      name LeftUpLeg_dum
      direction 1.000000 0.000000 0.000000
      length 4.318350
      axis 0.0 0.0 0.0 xyz
   end
   begin
      id 3
      name RightUpLeg_dum
      direction -1.000000 0.000000 0.000000
      length 4.318350
      axis 0.0 0.0 0.0 xyz
   end
   begin
      id 4
      name Spine
      direction 0.000000 1.000000 0.000000
      length 0.000000
      axis 0.0 0.0 0.0 xyz
      dof rx ry rz
   end
   begin
      id 5
      name Spine_dum1
      direction 0.000000 1.000000 0.000000
      length 14.276153
      axis 0.0 0.0 0.0 xyz
   end
   begin
      id 6
      name Spine_dum2
      direction 0.000000 1.000000 0.000000
      length 10.718243
      axis 0.0 0.0 0.0 xyz
   end
   begin
      id 7
      name Spine_dum3
      direction 0.000000 1.000000 0.000000
      length 10.718243
      axis 0.0 0.0 0.0 xyz
   end
   begin
      id 8
      name Head
      direction 0.000000 1.000000 0.000000
      length 4.527550
      axis 0.0 0.0 0.0 xyz
      dof rx ry rz
   end
   begin
      id 9
      name LeftShoulder
      direction 1.000000 0.000000 0.000000
      length 7.058872
      axis 0.0 0.0 -90.0 xyz
      dof rx ry rz
   end
   begin
      id 10
      name LeftArm
      direction 1.000000 0.000000 0.000000
      length 10.955525
      axis 0.0 0.0 -90.0 xyz
      dof rx ry rz
   end
   begin
      id 11
      name LeftForeArm
      direction 1.000000 0.000000 0.000000
      length 8.193716
      axis 0.0 0.0 -90.0 xyz
      dof ry rz rx
   end
   begin
      id 12
      name LeftHand
      direction 0.000000 0.000000 0.000000
      length 0.000000
      axis 0.0 0.0 -90.0 xyz
      dof rx ry rz
   end
   begin
      id 13
      name LeftHand_dum1
      direction 0.000000 0.000000 0.000000
      length 0.000000
      axis 0.0 0.0 -90.0 xyz
   end
   begin
      id 14
      name LeftHand_dum2
      direction 1.000000 0.000000 0.000000
      length 3.937000
      axis 0.0 0.0 -90.0 xyz
   end
   begin
      id 15
      name LeftHandThumb1
      direction 0.000000 0.000000 1.000000
      length 3.937000
      axis 0.0 0.0 -90.0 xyz
      dof rx rz ry
   end
   begin
      id 16
      name RightShoulder
      direction -1.000000 0.000000 0.000000
      length 7.058872
      axis 0.0 0.0 90.0 xyz
      dof rx ry rz
   end
   begin
      id 17
      name RightArm
      direction -1.000000 0.000000 0.000000
      length 10.955525
      axis 0.0 0.0 90.0 xyz
      dof rx ry rz
   end
   begin
      id 18
      name RightForeArm
      direction -1.000000 0.000000 0.000000
      length 8.193716
      axis 0.0 0.0 90.0 xyz
      dof ry rz rx
   end
   begin
      id 19
      name RightHand
      direction 0.000000 0.000000 0.000000
      length 0.000000
      axis 0.0 0.0 90.0 xyz
      dof rx ry rz
   end
   begin
      id 20
      name RightHand_dum1
      direction 0.000000 0.000000 0.000000
      length 0.000000
      axis 0.0 0.0 90.0 xyz
   end
   begin
      id 21
      name RightHand_dum2
      direction -1.000000 0.000000 0.000000
      length 3.937000
      axis 0.0 0.0 90.0 xyz
   end
   begin
      id 22
      name RightHandThumb1
      direction 0.000000 0.000000 1.000000
      length 3.937000
      axis 0.0 0.0 90.0 xyz
      dof rx rz ry
   end
   begin
      id 23
      name LeftUpLeg
      direction 0.000000 -1.000000 0.000000
      length 17.323638
      axis 0.0 0.0 0.0 xyz
      dof rx ry rz
   end
   begin
      id 24
      name LeftLeg
      direction 0.000000 -1.000000 0.000000
      length 16.270368
      axis 0.0 0.0 0.0 xyz
      dof rx ry rz
   end
   begin
      id 25
      name LeftFoot
      direction 0.000000 -0.258819 0.965926
      length 4.922846
      axis 15.0 0.0 0.0 xyz
      dof rx ry rz
   end
   begin
      id 26
      name LeftToeBase
      direction 0.000000 0.000000 1.000000
      length 2.952750
      axis 0.0 0.0 0.0 xyz
      dof rx ry rz
   end
   begin
      id 27
      name RightUpLeg
      direction 0.000000 -1.000000 0.000000
      length 17.323638
      axis 0.0 0.0 0.0 xyz
      dof rx ry rz
   end
   begin
      id 28
      name RightLeg
      direction 0.000000 -1.000000 0.000000
      length 16.270368
      axis 0.0 0.0 0.0 xyz
      dof rx ry rz
   end
   begin
      id 29
      name RightFoot
      direction 0.000000 -0.258819 0.965926
      length 4.922846
      axis 15.0 0.0 0.0 xyz
      dof rx ry rz
   end
   begin
      id 30
      name RightToeBase
      direction 0.000000 0.000000 1.000000
      length 2.952750
      axis 0.0 0.0 0.0 xyz
      dof rx ry rz
   end
:hierarchy
   begin
      root Spine_dum LeftUpLeg_dum RightUpLeg_dum
      Spine_dum Spine
      LeftUpLeg_dum LeftUpLeg
      RightUpLeg_dum RightUpLeg
      Spine Spine_dum1 Spine_dum2 Spine_dum3
      Spine_dum1 Head
      Spine_dum2 LeftShoulder
      Spine_dum3 RightShoulder
      LeftShoulder LeftArm
      LeftArm LeftForeArm
      LeftForeArm LeftHand
      LeftHand LeftHand_dum1 LeftHand_dum2
      LeftHand_dum1 LeftHandThumb1
      RightShoulder RightArm
      RightArm RightForeArm
      RightForeArm RightHand
      RightHand RightHand_dum1 RightHand_dum2
      RightHand_dum1 RightHandThumb1
      LeftUpLeg LeftLeg
      LeftLeg LeftFoot
      LeftFoot LeftToeBase
      RightUpLeg RightLeg
      RightLeg RightFoot
      RightFoot RightToeBase
   end

# File created by Blade
# Date/Time:  Fri Jan 16 17:25:22 2015
# Frame Rate: 120.000 fps
#------------------------------------------------------
:FULLY-SPECIFIED
:DEGREES
620
root -5.814231 35.263722 -10.704412 -4.475432 -6.889726 -5.746363
Spine 3.132545 9.271799 9.666141
Head 5.749754 1.251582 -7.912450
LeftShoulder -17.214390 15.190053 -16.278091
LeftArm 27.289779 22.073918 -64.589262
LeftForeArm 10.325153 -0.000000 15.071846
LeftHand 0.512670 -0.000000 -8.432900
LeftHandThumb1 -26.253704 0.000000 33.147579
RightShoulder 5.937065 0.333906 -1.703602
RightArm 44.335762 -59.002523 42.758835
RightForeArm -17.338369 -0.000000 27.194549
RightHand 1.959489 -0.000000 9.017273
RightHandThumb1 -24.326973 -0.000000 -32.862282
LeftUpLeg 13.382623 15.161006 8.272578
LeftLeg -8.448681 -0.000000 0.000000
LeftFoot -14.703299 28.654710 -7.905812
LeftToeBase 22.901768 -0.000000 -0.000000
RightUpLeg 9.856212 -6.529797 2.365713
RightLeg -4.277155 -0.000000 0.000000
RightFoot -3.737151 -23.060056 5.191251
RightToeBase 13.745352 -0.000000 -0.000000
621
root -5.808814 35.264450 -10.692558 -4.529946 -6.862418 -5.771683
Spine 3.211697 9.011276 9.701088
Head 5.671994 1.316116 -7.942887
LeftShoulder -17.249420 15.201434 -16.326004
LeftArm 27.175321 21.846759 -64.695987
LeftForeArm 10.395018 -0.000000 15.139677
LeftHand 0.533279 0.000000 -8.463869
LeftHandThumb1 -26.253704 0.000000 33.147579
RightShoulder 5.734781 0.188883 -1.683578
RightArm 42.717472 -58.565526 44.025992
RightForeArm -17.326846 -0.000000 27.028126
RightHand 1.964966 0.000000 9.634748
RightHandThumb1 -24.326973 -0.000000 -32.862282
LeftUpLeg 13.466979 15.108220 8.298679
LeftLeg -8.480960 -0.000000 0.000000
LeftFoot -14.710026 28.682850 -7.909278
LeftToeBase 22.910915 -0.000000 -0.000000
RightUpLeg 9.959525 -6.618213 2.357678
RightLeg -4.325347 -0.000000 0.000000
RightFoot -3.719709 -22.983427 5.307367
RightToeBase 13.689809 -0.000000 -0.000000
622
root -5.808482 35.263005 -10.697514 -4.469840 -6.966483 -5.779187
Spine 3.184118 8.909750 9.662294
Head 5.629074 1.405476 -7.889094
LeftShoulder -17.221077 15.238349 -16.276484
LeftArm 27.081385 21.856936 -64.696357
LeftForeArm 10.175377 -0.000000 15.233648
LeftHand 0.520879 -0.000000 -8.324495
LeftHandThumb1 -26.253704 0.000000 33.147579
RightShoulder 5.542132 0.017348 -1.630154
RightArm 41.476659 -58.282651 44.849296
RightForeArm -17.292535 -0.000000 26.850767
RightHand 2.074329 -0.000000 9.673896
RightHandThumb1 -24.326973 -0.000000 -32.862282
LeftUpLeg 13.426245 15.195273 8.302851
LeftLeg -8.478940 -0.000000 0.000000
LeftFoot -14.715565 28.702414 -7.886404
LeftToeBase 22.887113 -0.000000 -0.000000
RightUpLeg 9.864421 -6.542401 2.382340
RightLeg -4.290731 -0.000000 0.000000
RightFoot -3.713072 -22.975720 5.257201
RightToeBase 13.705840 -0.000000 -0.000000
623
root -5.807868 35.261942 -10.702411 -4.409525 -7.058457 -5.782601
Spine 3.178379 8.774705 9.625553
Head 5.527567 1.468935 -7.860601
LeftShoulder -17.264300 15.203506 -16.261366
LeftArm 26.971326 21.813438 -64.725166
LeftForeArm 9.998489 -0.000000 15.300983
LeftHand 0.565332 -0.000000 -8.338480
LeftHandThumb1 -26.253704 0.000000 33.147579
RightShoulder 5.398775 -0.107481 -1.592140
RightArm 39.919807 -57.856831 46.048262
RightForeArm -17.157111 0.000000 26.663710
RightHand 1.815654 -0.000000 9.154568
RightHandThumb1 -24.326973 -0.000000 -32.862282
LeftUpLeg 13.377894 15.264727 8.297673
LeftLeg -8.472211 -0.000000 0.000000
LeftFoot -14.727967 28.723405 -7.878014
LeftToeBase 22.898343 -0.000000 -0.000000
RightUpLeg 9.767449 -6.459214 2.403112
RightLeg -4.249676 -0.000000 0.000000
RightFoot -3.724525 -22.987381 5.212452
RightToeBase 13.763290 -0.000000 -0.000000
624
root -5.805863 35.261518 -10.701429 -4.389881 -7.112543 -5.786962
Spine 3.201249 8.616442 9.592977
Head 5.450737 1.509906 -7.828168
LeftShoulder -17.277643 15.224972 -16.264953
LeftArm 26.872766 21.668891 -64.787823
LeftForeArm 10.100687 -0.000000 15.388554
LeftHand 0.653605 -0.000000 -7.772085
LeftHandThumb1 -26.253704 0.000000 33.147579
RightShoulder 5.225253 -0.237000 -1.529900
RightArm 38.402102 -57.389449 47.186524
RightForeArm -17.175044 0.000000 26.455848
RightHand 1.940764 -0.000000 9.192941
RightHandThumb1 -24.326973 -0.000000 -32.862282
LeftUpLeg 13.377441 15.317260 8.299375
LeftLeg -8.479307 -0.000000 0.000000
LeftFoot -14.727510 28.721486 -7.868041
LeftToeBase 22.892614 -0.000000 -0.000000
RightUpLeg 9.743979 -6.420194 2.404924
RightLeg -4.248561 -0.000000 0.000000
RightFoot -3.719301 -22.960018 5.213960
RightToeBase 13.772565 -0.000000 -0.000000
625
root -5.804297 35.261432 -10.700396 -4.371002 -7.166865 -5.800335
Spine 3.225292 8.437185 9.573858
Head 5.368465 1.583924 -7.802499
LeftShoulder -17.301920 15.269158 -16.248989
LeftArm 26.817062 21.528000 -64.867473
LeftForeArm 10.009394 0.000000 15.422702
LeftHand 0.649389 -0.000000 -7.676802
LeftHandThumb1 -26.253704 0.000000 33.147579
RightShoulder 5.075326 -0.385289 -1.488471
RightArm 36.928688 -56.843687 48.311097
RightForeArm -17.108062 -0.000000 26.248969
RightHand 1.952452 -0.000000 9.338753
RightHandThumb1 -24.326973 -0.000000 -32.862282
LeftUpLeg 13.382058 15.353704 8.310550
LeftLeg -8.491858 -0.000000 0.000000
LeftFoot -14.730495 28.734426 -7.852540
LeftToeBase 22.917206 -0.000000 -0.000000
RightUpLeg 9.718763 -6.405207 2.414406
RightLeg -4.238739 -0.000000 0.000000
RightFoot -3.709376 -22.915064 5.201459
RightToeBase 13.768255 -0.000000 -0.000000
626
root -5.802793 35.261452 -10.699140 -4.352416 -7.221203 -5.812314
Spine 3.251998 8.276717 9.559444
Head 5.276534 1.662997 -7.771849
LeftShoulder -17.350412 15.284467 -16.281217
LeftArm 26.794650 21.574637 -64.791745
LeftForeArm 9.784266 -0.000000 15.460771
LeftHand 0.606803 -0.000000 -7.921906
LeftHandThumb1 -26.253704 0.000000 33.147579
RightShoulder 4.942370 -0.513848 -1.418495
RightArm 35.375072 -56.298412 49.446713
RightForeArm -17.113513 -0.000000 26.082213
RightHand 2.065152 -0.000000 9.269312
RightHandThumb1 -24.326973 -0.000000 -32.862282
LeftUpLeg 13.389617 15.383090 8.319807
LeftLeg -8.508699 -0.000000 0.000000
LeftFoot -14.735417 28.758980 -7.853950
LeftToeBase 22.896436 -0.000000 -0.000000
RightUpLeg 9.701022 -6.365785 2.426011
RightLeg -4.242363 -0.000000 0.000000
RightFoot -3.704723 -22.894330 5.229844
RightToeBase 13.743813 -0.000000 -0.000000
627
root -5.800647 35.261421 -10.698202 -4.332350 -7.275099 -5.821883
Spine 3.272936 8.106111 9.540361
Head 5.202537 1.712706 -7.748126
LeftShoulder -17.366649 15.297641 -16.284502
LeftArm 26.725711 21.518887 -64.798056
LeftForeArm 9.695647 0.000000 15.491084
LeftHand 0.610715 0.000000 -7.985459
LeftHandThumb1 -26.253704 0.000000 33.147579
RightShoulder 4.826239 -0.649799 -1.356981
RightArm 33.872560 -55.690625 50.559282
RightForeArm -17.197052 -0.000000 25.870455
RightHand 2.197755 -0.000000 9.378039
RightHandThumb1 -24.326973 -0.000000 -32.862282
LeftUpLeg 13.399788 15.408547 8.325193
LeftLeg -8.532995 -0.000000 0.000000
LeftFoot -14.740913 28.779189 -7.860026
LeftToeBase 22.908633 -0.000000 -0.000000
RightUpLeg 9.683805 -6.344026 2.435449
RightLeg -4.250111 -0.000000 0.000000
RightFoot -3.695231 -22.876787 5.241117
RightToeBase 13.772969 -0.000000 -0.000000
628
root -5.798950 35.261029 -10.696658 -4.304266 -7.320550 -5.836856
Spine 3.288854 7.939252 9.530795
Head 5.130666 1.739965 -7.737591
LeftShoulder -17.387151 15.300644 -16.281003
LeftArm 26.653044 21.468425 -64.819229
LeftForeArm 9.669223 -0.000000 15.515478
LeftHand 0.594771 -0.000000 -8.041428
LeftHandThumb1 -26.253704 0.000000 33.147579
RightShoulder 4.657632 -0.821901 -1.293402
RightArm 32.702147 -55.171501 51.384927
RightForeArm -17.246394 -0.000000 25.580990
RightHand 2.156344 -0.000000 9.406849
RightHandThumb1 -24.326973 -0.000000 -32.862282
LeftUpLeg 13.396299 15.458427 8.338472
LeftLeg -8.549995 -0.000000 0.000000
LeftFoot -14.733927 28.776972 -7.848250
LeftToeBase 22.897442 -0.000000 -0.000000
RightUpLeg 9.659502 -6.317860 2.450329
RightLeg -4.257553 -0.000000 0.000000
RightFoot -3.678552 -22.848487 5.260737
RightToeBase 13.724084 -0.000000 -0.000000
629
root -5.797309 35.260447 -10.695759 -4.277417 -7.358072 -5.836588
Spine 3.313481 7.760894 9.497088
Head 5.038385 1.770512 -7.714491
LeftShoulder -17.435243 15.300713 -16.281543
LeftArm 26.627760 21.430386 -64.802750
LeftForeArm 9.742700 0.000000 15.523759
LeftHand 0.608391 -0.000000 -8.018785
LeftHandThumb1 -26.253704 0.000000 33.147579
RightShoulder 4.527088 -0.908752 -1.225063
RightArm 31.112019 -54.535119 52.587291
RightForeArm -17.591050 -0.000000 25.444456
RightHand 2.047729 0.000000 9.111647
RightHandThumb1 -24.326973 -0.000000 -32.862282
LeftUpLeg 13.387183 15.483909 8.331366
LeftLeg -8.565882 -0.000000 0.000000
LeftFoot -14.735954 28.792850 -7.857776
LeftToeBase 22.899391 -0.000000 -0.000000
RightUpLeg 9.630702 -6.303678 2.449542
RightLeg -4.258419 -0.000000 0.000000
RightFoot -3.672981 -22.822416 5.247565
RightToeBase 13.723489 -0.000000 -0.000000
630
root -5.796196 35.259706 -10.692532 -4.251997 -7.387222 -5.840789
Spine 3.313751 7.580182 9.464801
Head 4.987619 1.839872 -7.671715
LeftShoulder -17.447594 15.363768 -16.265082
LeftArm 26.607219 21.361195 -64.828604
LeftForeArm 9.688095 0.000000 15.505174
LeftHand 0.638446 -0.000000 -7.992406
LeftHandThumb1 -26.253704 0.000000 33.147579
RightShoulder 4.405544 -1.047292 -1.163644
RightArm 29.811744 -53.943517 53.520842
RightForeArm -17.644900 -0.000000 25.217148
RightHand 1.992079 0.000000 9.163195
RightHandThumb1 -24.326973 -0.000000 -32.862282
LeftUpLeg 13.386536 15.515945 8.331780
LeftLeg -8.590130 -0.000000 0.000000
LeftFoot -14.731859 28.787876 -7.843512
LeftToeBase 22.899136 -0.000000 -0.000000
RightUpLeg 9.616860 -6.319592 2.448255
RightLeg -4.278970 -0.000000 0.000000
RightFoot -3.651478 -22.778255 5.243620
RightToeBase 13.675417 -0.000000 -0.000000
